<svg width="331px" height="276px" viewBox="17 24 331 276" version="1.1" xmlns="http://www.w3.org/2000/svg" xmlns:xlink="http://www.w3.org/1999/xlink">
    <!-- Generator: Sketch 39.1 (31720) - http://www.bohemiancoding.com/sketch -->
    <desc>Created with Sketch.</desc>
    <defs></defs>
<!--     <rect id="BG" stroke="none" fill="#D8D8D8" fill-rule="evenodd" x="17" y="24" width="331" height="276"></rect> -->
		<path d="M211.249998,88.140625 C206.421876,79.5820313 203.890625,63.0195313 183.476562,63.0195313 C163.0625,63.0195312 156.187504,83.0898438 156.187504,83.0898438 C156.187504,83.0898438 104.885756,182.200288 94.890625,203.421875 C87.8671875,218.333984 87.0585936,240.019531 101.292969,252.742188 C115.527344,265.464844 140.132809,263.75 152.1875,254.742188 C159.122058,249.560371 172.634932,237.13626 184.219991,224.200942 C199.91406,207.779297 214.431639,180.496094 209.199217,162.371094 C205.876951,150.734375 197.566793,141.519531 180.894922,141.519531 C164.22305,141.519531 156.078123,149.324219 152.613281,162.371094 C149.148439,175.417969 150.019528,194.414062 174.949219,224.578125 C185.767695,237.668107 197.891176,248.28086 209.859171,254.956373 C225.469774,263.663662 242.773443,267.605469 259.000006,254.956375 C272.566384,244.380975 274.660162,224.429688 268.548834,207.779297 C262.437506,191.128906 238.099615,141.519531 238.099615,141.519531" id="samara_path2" stroke="#6AE744" stroke-width="9"    stroke-linecap="round" fill="none"></path>
    <path d="M183.476562,63.0195313 C163.0625,63.0195312 156.187504,83.0898438 156.187504,83.0898438 C156.187504,83.0898438 104.885756,182.200288 94.890625,203.421875 C87.8671875,218.333984 87.0585936,240.019531 101.292969,252.742188 C115.527344,265.464844 140.132809,263.75 152.1875,254.742188 C159.122058,249.560371 172.634932,237.13626 184.219991,224.200942 C199.91406,207.779297 214.431639,180.496094 209.199217,162.371094 C205.876951,150.734375 197.566793,141.519531 180.894922,141.519531 C164.22305,141.519531 156.078123,149.324219 152.613281,162.371094 C149.148439,175.417969 150.019528,194.414062 174.949219,224.578125 C185.767695,237.668107 197.891176,248.28086 209.859171,254.956373 C225.469774,263.663662 242.773443,267.605469 259.000006,254.956375 C272.566384,244.380975 274.660162,224.429688 268.548834,207.779297 C262.437506,191.128906 238.099615,141.519531 238.099615,141.519531 C238.099615,141.519531 217.631366,99.4525895 211.249998,88.140625 C206.421876,79.5820313 203.890625,63.0195313 183.476562,63.0195313 Z" id="Path"   stroke="#ff5a5f" stroke-width="0" stroke-linecap="round" fill="none"></path>
    <circle id="Oval" stroke="none" fill="#ff5a5f" fill-rule="evenodd" cx="0" cy="0" r="10.5">
			<animateMotion dur="5s" repeatCount="indefinite">
				 <mpath xlink:href="#Path"/>
			</animateMotion>
		</circle>
    <path d="M211.249998,88.140625 C206.421876,79.5820313 203.890625,63.0195313 183.476562,63.0195313 C163.0625,63.0195312 156.187504,83.0898438 156.187504,83.0898438 C156.187504,83.0898438 104.885756,182.200288 94.890625,203.421875 C87.8671875,218.333984 87.0585936,240.019531 101.292969,252.742188 C115.527344,265.464844 140.132809,263.75 152.1875,254.742188 C159.122058,249.560371 172.634932,237.13626 184.219991,224.200942 C199.91406,207.779297 214.431639,180.496094 209.199217,162.371094 C205.876951,150.734375 197.566793,141.519531 180.894922,141.519531 C164.22305,141.519531 156.078123,149.324219 152.613281,162.371094 C149.148439,175.417969 150.019528,194.414062 174.949219,224.578125 C185.767695,237.668107 197.891176,248.28086 209.859171,254.956373 C225.469774,263.663662 242.773443,267.605469 259.000006,254.956375 C272.566384,244.380975 274.660162,224.429688 268.548834,207.779297 C262.437506,191.128906 238.099615,141.519531 238.099615,141.519531" id="samara_path" stroke="#ff5a5f" stroke-width="10"    stroke-linecap="round" fill="none"></path>
	
</svg>